<svg width="360" height="212" viewBox="0 0 360 212" fill="none" xmlns="http://www.w3.org/2000/svg">
<path d="M0 0H360V188C360 201.255 349.255 212 336 212H24C10.7452 212 0 201.255 0 188V0Z" fill="#051E29"/>
<mask id="mask0_9_879" style="mask-type:alpha" maskUnits="userSpaceOnUse" x="0" y="0" width="360" height="212">
<path d="M0 0H360V188C360 201.255 349.255 212 336 212H24C10.7452 212 0 201.255 0 188V0Z" fill="#051E29"/>
</mask>
<g mask="url(#mask0_9_879)">
<g style="mix-blend-mode:difference" opacity="0.15">
<g clip-path="url(#clip0_9_879)">
<path d="M510.817 73.2558C487.892 91.154 468.533 113.208 444.899 130.244C432.37 139.275 418.68 146.529 403.741 150.7C388.845 154.858 373.332 156.188 357.918 156.424C327.56 156.889 296.978 153.092 266.756 157.462C251.947 159.604 237.982 164.114 224.597 170.753C210.62 177.685 197.379 186.07 183.054 192.3C168.505 198.625 152.485 202.304 136.832 198.052C123.539 194.44 112.304 185.785 103.504 175.469C82.4107 150.738 76.5772 117.944 62.8636 89.3047C38.3366 38.089 -12.8488 8.4612 -49.8942 -32.5688L-51.0836 -32.3215C-43.3723 -23.8527 -34.9869 -15.99 -26.9046 -8.54324C-5.59575 11.0941 17.2627 29.2575 36.3411 51.1568C46.2411 62.5209 54.9694 74.8903 61.5855 88.4396C69.3153 104.273 74.4472 121.172 80.9997 137.488C90.8395 161.997 106.225 188.164 132.641 197.547C162.597 208.188 191.174 189.355 216.601 175.76C231.089 168.013 245.909 161.835 262.17 158.975C278.114 156.171 294.377 155.933 310.515 156.25C341.184 156.849 372.714 159.845 402.742 151.772C431.807 143.957 454.725 124.685 476.361 104.728C487.508 94.4457 498.499 83.9519 510.425 74.5465C521.552 65.7704 533.585 58.4551 546.085 51.799C560.175 44.2968 574.9 37.4764 588.781 29.3868L588.595 28.4911C585.488 30.3096 582.347 32.0621 579.197 33.7614C555.972 46.2909 531.734 56.9292 510.82 73.2603L510.817 73.2558Z" fill="white"/>
<path d="M500.817 68.5353C479.015 85.5589 460.601 106.535 438.122 122.738C426.208 131.327 413.189 138.225 398.986 142.191C384.819 146.147 370.065 147.408 355.409 147.634C326.533 148.075 297.444 144.462 268.698 148.622C254.613 150.661 241.328 154.952 228.596 161.266C215.304 167.859 202.709 175.836 189.083 181.76C175.251 187.774 160.02 191.273 145.134 187.228C132.495 183.794 121.811 175.564 113.443 165.752C93.3826 142.23 87.8347 111.039 74.7908 83.8049C51.3229 34.8007 2.19316 6.57772 -33.0887 -32.814C-33.8896 -33.7075 -34.6977 -34.6232 -35.5075 -35.5594L-36.6943 -35.3126C-28.5473 -25.9293 -19.3955 -17.3255 -10.6202 -9.23761C9.64672 9.43849 31.3891 26.7163 49.5348 47.5453C58.9496 58.3533 67.2506 70.1153 73.5414 83.0019C80.8937 98.0603 85.775 114.135 92.006 129.654C101.368 152.969 116.005 177.86 141.132 186.785C169.629 196.908 196.814 178.996 221.003 166.062C234.78 158.695 248.873 152.82 264.34 150.099C279.504 147.431 294.968 147.207 310.316 147.508C339.488 148.078 369.48 150.93 398.039 143.249C425.687 135.815 447.489 117.485 468.067 98.4987C478.668 88.717 489.123 78.7379 500.466 69.7914C511.049 61.4452 522.491 54.4883 534.377 48.1587C551.835 38.8621 570.32 30.6686 586.714 19.4702L586.522 18.5469C579.901 23.0933 572.899 27.1666 565.854 30.9662C543.764 42.8829 520.709 53.003 500.814 68.5358L500.817 68.5353Z" fill="#F1F1F1"/>
<path d="M490.82 63.8157C470.138 79.9652 452.672 99.8618 431.344 115.232C420.046 123.376 407.7 129.919 394.228 133.681C380.79 137.433 366.798 138.63 352.895 138.843C325.5 139.262 297.905 135.836 270.635 139.78C257.272 141.713 244.668 145.784 232.59 151.777C219.98 158.031 208.033 165.596 195.107 171.218C181.992 176.921 167.547 180.241 153.433 176.404C141.446 173.145 131.315 165.342 123.379 156.038C104.353 133.727 99.0906 104.139 86.7179 78.304C64.4542 31.8161 17.8486 5.04197 -15.6212 -32.3262C-17.3914 -34.3008 -19.1962 -36.3912 -20.9899 -38.5808L-22.1591 -38.3377C-13.7043 -27.995 -3.79096 -18.6491 5.66348 -9.93551C24.8889 7.78186 45.5147 24.1716 62.7273 43.9277C71.6563 54.1771 79.5311 65.3367 85.4987 77.5576C92.4739 91.8437 97.1035 107.089 103.016 121.81C111.897 143.932 125.788 167.546 149.63 176.014C176.67 185.618 202.462 168.626 225.413 156.355C238.482 149.366 251.849 143.794 266.517 141.215C280.899 138.686 295.567 138.471 310.125 138.757C337.8 139.299 366.254 142.004 393.348 134.717C419.581 127.663 440.264 110.273 459.788 92.2625C469.847 82.9835 479.761 73.5173 490.521 65.0322C500.557 57.1164 511.412 50.5198 522.687 44.5136C543.475 33.4436 565.795 24.0312 583.804 8.54741C583.99 8.38833 584.17 8.22527 584.356 8.06367L584.15 7.07262C574.712 15.4163 563.681 22.1543 552.53 28.1714C531.571 39.4757 509.702 49.0771 490.83 63.8136L490.82 63.8157Z" fill="#E3E3E3"/>
<path d="M480.82 59.095C461.257 74.3679 444.737 93.1883 424.567 107.726C413.884 115.426 402.208 121.615 389.47 125.169C376.762 128.717 363.528 129.851 350.381 130.053C324.47 130.449 298.368 127.209 272.572 130.939C259.929 132.767 248.008 136.62 236.58 142.286C224.654 148.2 213.354 155.358 201.127 160.674C188.729 166.066 175.07 169.204 161.726 165.579C150.391 162.499 140.813 155.12 133.308 146.323C115.311 125.222 110.335 97.2392 98.6344 72.8061C77.575 28.8345 33.494 3.51165 1.83617 -31.833C-0.856288 -34.8409 -3.6356 -38.1264 -6.32491 -41.627L-7.45354 -41.3924C1.14552 -30.0378 11.8178 -19.9493 21.9347 -10.6275C40.118 6.12871 59.6247 21.6308 75.9077 40.3186C84.3515 50.0119 91.799 60.564 97.4415 72.1223C104.039 85.6336 108.418 100.054 114.009 113.979C122.412 134.907 135.552 157.245 158.109 165.258C183.689 174.343 208.089 158.271 229.802 146.663C242.161 140.055 254.802 134.786 268.674 132.344C282.274 129.951 296.148 129.749 309.914 130.02C336.09 130.532 363.003 133.09 388.633 126.199C413.448 119.526 433.015 103.078 451.482 86.0405C460.996 77.2647 470.376 68.3102 480.55 60.2845C490.042 52.7986 500.305 46.5604 510.968 40.8807C530.631 30.4108 551.745 21.5057 568.777 6.85857C573.445 2.84658 577.669 -1.60726 581.307 -6.49662L581.088 -7.55291C570.486 6.83575 554.958 16.8722 539.173 25.3866C519.35 36.0807 498.661 45.1643 480.81 59.0996L480.82 59.095Z" fill="#D4D4D4"/>
<path d="M571.281 -18.1381C561.856 0.832461 544.028 12.7791 525.842 22.5882C507.154 32.6695 487.648 41.2349 470.818 54.3744C452.377 68.7727 436.802 86.5145 417.787 100.221C407.72 107.478 396.714 113.308 384.712 116.659C372.733 120.003 360.262 121.073 347.87 121.262C323.441 121.638 298.831 118.58 274.511 122.097C262.591 123.822 251.35 127.452 240.576 132.797C229.332 138.372 218.681 145.12 207.154 150.132C195.47 155.213 182.6 158.171 170.028 154.754C159.345 151.85 150.32 144.898 143.247 136.608C126.284 116.719 121.594 90.3387 110.565 67.3077C90.7126 25.8543 49.1552 1.97776 19.3093 -31.3435C15.7338 -35.3351 11.9966 -39.8506 8.56534 -44.7229L7.50495 -44.5025C16.0425 -32.0725 27.4662 -21.2398 38.2267 -11.3241C55.3685 4.47341 73.7587 19.0874 89.1064 36.7054C97.0674 45.842 104.083 55.7878 109.405 66.6824C115.625 79.4189 119.753 93.0143 125.022 106.142C132.946 125.877 145.34 146.939 166.61 154.494C190.732 163.063 213.738 147.909 234.213 136.962C245.863 130.734 257.779 125.765 270.854 123.465C283.675 121.21 296.749 121.021 309.726 121.272C334.405 121.756 359.781 124.167 383.943 117.67C407.34 111.379 425.788 95.8717 443.203 79.8047C452.172 71.5322 461.014 63.09 470.605 55.5232C479.55 48.4676 489.226 42.5873 499.277 37.2335C517.816 27.3613 537.722 18.9666 553.78 5.15801C561.235 -1.25281 567.508 -8.84678 571.893 -17.645C571.939 -17.6756 571.981 -17.7182 572.012 -17.7824C573.703 -21.0786 575.332 -24.43 576.885 -27.831L576.617 -29.1181C574.975 -25.4604 573.231 -21.8495 571.404 -18.2815C571.358 -18.2509 571.317 -18.2058 571.285 -18.1417L571.281 -18.1381Z" fill="#C6C6C6"/>
<path d="M555.289 -18.5878C555.245 -18.5577 555.205 -18.5126 555.173 -18.451C546.321 -0.636005 529.582 10.5816 512.505 19.7937C494.949 29.2652 476.628 37.3094 460.82 49.6526C443.5 63.1768 428.872 79.8394 411.012 92.7114C401.559 99.5243 391.227 104.999 379.956 108.146C368.708 111.286 356.995 112.29 345.358 112.469C322.41 112.821 299.294 109.951 276.451 113.255C265.253 114.874 254.693 118.287 244.572 123.307C234.013 128.544 224.007 134.88 213.183 139.589C202.215 144.358 190.134 147.134 178.332 143.929C168.303 141.203 159.829 134.676 153.189 126.89C137.258 108.21 132.854 83.435 122.494 61.8041C103.846 22.8671 64.8132 0.441772 36.7788 -30.8585C32.3544 -35.7965 27.6681 -41.5883 23.7181 -47.8761L22.759 -47.6767C30.9583 -34.0928 43.1294 -22.5099 54.5104 -12.0217C70.6103 2.81456 87.8838 16.5404 102.299 33.0881C109.775 41.6686 116.363 51.007 121.36 61.2389C127.203 73.2031 131.077 85.9718 136.029 98.2992C143.475 116.843 155.121 136.626 175.103 143.724C197.767 151.774 219.379 137.544 238.616 127.257C249.557 121.407 260.745 116.743 273.025 114.582C285.064 112.464 297.343 112.285 309.528 112.524C332.71 112.978 356.544 115.242 379.241 109.138C401.221 103.228 418.551 88.6599 434.913 73.5684C443.337 65.7967 451.641 57.8692 460.65 50.7638C469.051 44.1381 478.136 38.6162 487.574 33.5913C504.987 24.3198 523.686 16.4325 538.769 3.45994C545.77 -2.56055 551.663 -9.69348 555.782 -17.9573C555.826 -17.9874 555.865 -18.0295 555.897 -18.0911C562.148 -30.2822 567.539 -43.2577 570.888 -56.6593L570.493 -58.5611C569.935 -56.1914 569.315 -53.8403 568.639 -51.5143C565.329 -40.1231 560.699 -29.1486 555.289 -18.5878Z" fill="#B8B8B8"/>
<path d="M535.749 -133.979C530.053 -140.247 523.74 -145.708 516.959 -150.426L515.843 -150.194C530.126 -140.429 542.808 -127.34 550.01 -111.644C558.955 -92.15 557.519 -69.8515 551.656 -49.6765C548.561 -39.0264 544.232 -28.7661 539.175 -18.8913C539.131 -18.8612 539.093 -18.8166 539.063 -18.758C530.787 -2.09923 515.134 8.38988 499.166 17.0051C482.744 25.8637 465.607 33.3897 450.819 44.9346C434.618 57.5847 420.936 73.1687 404.233 85.2085C395.396 91.5793 385.734 96.6978 375.199 99.6393C364.68 102.575 353.729 103.514 342.847 103.68C321.381 104.01 299.758 101.326 278.391 104.416C267.916 105.931 258.036 109.124 248.569 113.82C238.692 118.719 229.335 124.645 219.21 129.049C208.959 133.507 197.664 136.104 186.631 133.105C177.255 130.558 169.333 124.455 163.126 117.176C148.226 99.7054 144.107 76.5332 134.421 56.3063C116.978 19.8856 80.4693 -1.09093 54.2469 -30.3677C49.0038 -36.2217 43.3618 -43.3592 39.2308 -51.1013L38.3983 -50.9282C45.9028 -36.09 58.8155 -23.7583 70.7943 -12.7191C85.8527 1.15848 102.01 13.9962 115.492 29.4735C122.483 37.498 128.644 46.2314 133.315 55.7982C138.778 66.9881 142.404 78.9315 147.035 90.462C154.001 107.813 164.897 126.319 183.597 132.962C204.802 140.494 225.023 127.183 243.023 117.557C253.253 112.087 263.714 107.724 275.198 105.705C286.458 103.725 297.939 103.558 309.334 103.78C331.02 104.205 353.315 106.323 374.544 100.613C395.106 95.0843 411.32 81.4577 426.625 67.3399C434.504 60.0714 442.271 52.6562 450.699 46.0092C458.556 39.8133 467.052 34.6493 475.877 29.9509C492.166 21.2769 509.656 13.9001 523.768 1.76557C530.316 -3.86512 535.828 -10.5365 539.683 -18.264C539.725 -18.2935 539.763 -18.3356 539.793 -18.3967C549.661 -37.6454 557.245 -58.9816 557.204 -80.8029C557.187 -90.7143 555.488 -100.622 551.672 -109.796C547.959 -118.719 542.243 -126.843 535.756 -133.983L535.749 -133.979Z" fill="#AAAAAA"/>
<path d="M519.914 -126.323C512.753 -134.202 504.552 -140.711 495.636 -145.992L494.452 -145.746C495.068 -145.385 495.686 -145.018 496.297 -144.645C511.61 -135.305 525.604 -121.939 533.145 -105.503C541.468 -87.3645 540.132 -66.6155 534.676 -47.8445C531.797 -37.9355 527.771 -28.3874 523.064 -19.2031C523.023 -19.1735 522.987 -19.1294 522.957 -19.0708C515.256 -3.56821 500.69 6.19239 485.828 14.2086C470.538 22.455 454.587 29.4622 440.818 40.2114C425.739 51.9843 413.003 66.4922 397.455 77.7003C389.233 83.6265 380.245 88.3903 370.441 91.1275C360.652 93.859 350.459 94.735 340.333 94.8904C320.349 95.1977 300.221 92.6974 280.325 95.5751C270.573 96.985 261.373 99.9579 252.559 104.329C243.364 108.89 234.656 114.407 225.231 118.505C215.694 122.653 205.188 125.07 194.927 122.28C186.203 119.909 178.834 114.232 173.059 107.46C159.193 91.2012 155.36 69.6316 146.343 50.8048C130.106 16.8998 96.1223 -2.62537 71.7089 -29.8806C65.6618 -36.6302 59.0453 -45.2167 55.2416 -54.4325L54.5356 -54.2857C60.8757 -38.0641 74.5206 -24.979 87.0705 -13.4146C101.087 -0.495774 116.125 11.4543 128.677 25.8583C135.182 33.3267 140.916 41.4527 145.265 50.3563C150.35 60.7714 153.725 71.8876 158.035 82.6236C164.523 98.7804 174.671 116.011 192.082 122.196C211.828 129.21 230.657 116.82 247.418 107.856C256.938 102.765 266.676 98.7063 277.362 96.8247C287.839 94.9813 298.523 94.8278 309.129 95.0335C329.317 95.4296 350.071 97.4018 369.835 92.0859C388.979 86.9381 404.077 74.253 418.327 61.1056C425.662 54.3405 432.891 47.4375 440.736 41.2494C448.046 35.484 455.954 30.6778 464.166 26.3058C479.33 18.2295 495.614 11.3625 508.749 0.0670987C514.846 -5.17378 519.975 -11.3836 523.564 -18.5767C523.606 -18.6063 523.642 -18.6478 523.672 -18.7064C532.861 -36.628 539.922 -56.4918 539.884 -76.8088C539.869 -86.04 538.288 -95.2678 534.732 -103.81C531.276 -112.117 525.951 -119.684 519.912 -126.331L519.914 -126.323Z" fill="#9C9C9C"/>
<path d="M504.079 -118.668C495.271 -128.361 484.76 -135.819 473.258 -141.34L472 -141.078C475.46 -139.437 478.857 -137.612 482.179 -135.586C496.35 -126.942 509.299 -114.573 516.28 -99.3616C523.98 -82.5799 522.745 -63.3778 517.694 -46.0078C515.031 -36.8398 511.305 -28.006 506.952 -19.5077C506.914 -19.4786 506.878 -19.4346 506.85 -19.379C499.722 -5.03199 486.245 3.99958 472.492 11.4188C458.337 19.0549 443.568 25.5414 430.819 35.4948C416.86 46.3936 405.071 59.8224 390.679 70.1988C383.073 75.6829 374.754 80.0876 365.686 82.6194C356.626 85.1496 347.196 85.9587 337.822 86.1016C319.322 86.3857 300.685 84.0727 282.266 86.7377C273.237 88.0443 264.717 90.7973 256.553 94.8451C248.043 99.067 239.978 104.173 231.255 107.965C222.435 111.801 212.715 114.037 203.224 111.459C195.152 109.266 188.336 104.013 182.992 97.7486C170.158 82.6991 166.609 62.7353 158.266 45.3101C143.233 13.9214 111.773 -4.15508 89.1751 -29.3848C82.3296 -37.0285 74.685 -47.2204 72.0001 -57.9121L71.3674 -57.7806C71.5919 -56.8535 71.8466 -55.9328 72.1389 -55.0225C77.3979 -38.5657 90.9504 -25.5319 103.353 -14.1045C116.328 -2.14688 130.249 8.9151 141.869 22.2513C147.888 29.161 153.196 36.6821 157.219 44.923C161.927 54.5659 165.051 64.8548 169.042 74.7909C175.049 89.7546 184.451 105.709 200.574 111.439C218.861 117.934 236.297 106.464 251.821 98.1639C260.633 93.4524 269.641 89.695 279.533 87.955C289.229 86.2505 299.117 86.1053 308.933 86.2972C327.624 86.6619 346.84 88.4879 365.136 83.5687C382.863 78.802 396.842 67.0564 410.038 54.8846C416.827 48.6227 423.519 42.232 430.781 36.5053C437.547 31.1697 444.864 26.722 452.466 22.6758C466.506 15.1996 481.581 8.8406 493.741 -1.61874C499.383 -6.4693 504.136 -12.2186 507.456 -18.8743C507.495 -18.9033 507.531 -18.9449 507.559 -19.0004C516.066 -35.5945 522.606 -53.9889 522.573 -72.8017C522.558 -81.3526 521.093 -89.8977 517.801 -97.8115C514.599 -105.503 509.671 -112.509 504.077 -118.665L504.079 -118.668Z" fill="#8E8E8E"/>
<path d="M488.244 -111.012C477.468 -122.87 463.921 -131.094 449.149 -136.328L447.757 -136.038C454.765 -133.621 461.564 -130.491 468.064 -126.526C481.093 -118.579 493 -107.209 499.417 -93.2227C506.495 -77.7958 505.357 -60.1426 500.718 -44.1746C498.27 -35.7477 494.847 -27.6285 490.845 -19.8157C490.809 -19.7872 490.775 -19.7462 490.747 -19.6906C484.194 -6.49976 471.802 1.80386 459.159 8.62309C446.137 15.6469 432.551 21.6151 420.827 30.7693C407.987 40.794 397.144 53.1467 383.905 62.6863C376.914 67.7258 369.269 71.7759 360.933 74.1033C352.604 76.4292 343.93 77.1725 335.314 77.3044C318.296 77.5657 301.153 75.437 284.209 77.8892C275.9 79.0907 268.063 81.6232 260.554 85.3492C252.725 89.2305 245.309 93.929 237.286 97.4165C229.182 100.939 220.251 102.997 211.53 100.628C204.111 98.6104 197.847 93.7854 192.935 88.0273C181.132 74.1901 177.872 55.8285 170.197 39.8057C156.369 10.9333 127.434 -5.69182 106.647 -28.9006C98.9733 -37.4687 90.2023 -49.523 89.9468 -61.6464L89.3267 -61.5175C89.4123 -58.465 89.9834 -55.4009 90.9262 -52.4533C95.7639 -37.3119 108.231 -25.322 119.641 -14.8059C131.577 -3.80752 144.379 6.36686 155.063 18.6307C160.598 24.9843 165.478 31.9006 169.176 39.4763C173.507 48.3444 176.38 57.8086 180.049 66.9477C185.578 80.7177 194.23 95.3985 209.069 100.668C225.899 106.647 241.94 96.0954 256.226 88.4556C264.327 84.1223 272.612 80.6696 281.704 79.0698C290.62 77.5012 299.712 77.3699 308.735 77.546C325.928 77.8818 343.603 79.5621 360.435 75.0365C376.744 70.651 389.606 59.8468 401.748 48.6481C407.992 42.887 414.146 37.0111 420.826 31.7432C427.048 26.8375 433.774 22.7482 440.762 19.0285C453.678 12.1499 467.544 6.30124 478.733 -3.32006C483.922 -7.78332 488.293 -13.0711 491.35 -19.1929C491.386 -19.2214 491.42 -19.2624 491.446 -19.3149C499.272 -34.5819 505.29 -51.5039 505.258 -68.8119C505.242 -76.6821 503.895 -84.5476 500.865 -91.8303C497.921 -98.9082 493.386 -105.355 488.238 -111.016L488.244 -111.012Z" fill="#808080"/>
<path d="M472.407 -103.356C459.005 -118.101 440.911 -126.694 421.687 -130.617L419.797 -130.224C431.737 -128.016 443.282 -123.967 453.942 -117.465C465.83 -110.215 476.691 -99.8385 482.547 -87.0786C489.005 -73.0069 487.965 -56.9027 483.731 -42.3381C481.496 -34.6517 478.376 -27.2448 474.726 -20.1175C474.692 -20.0895 474.661 -20.049 474.634 -19.999C468.654 -7.96375 457.351 -0.389173 445.815 5.83361C433.927 12.2472 421.524 17.6946 410.82 26.053C399.103 35.2031 389.205 46.4771 377.121 55.1851C370.745 59.78 363.771 63.476 356.17 65.598C348.57 67.72 340.659 68.399 332.796 68.5209C317.259 68.7595 301.609 66.8176 286.142 69.0546C278.556 70.1528 271.399 72.4653 264.543 75.8671C257.399 79.4097 250.629 83.6965 243.305 86.8814C235.918 90.0925 227.774 91.9716 219.824 89.8108C213.059 87.9718 207.346 83.5686 202.867 78.3173C192.097 65.6893 189.123 48.9328 182.12 34.3097C169.499 7.953 143.085 -7.22283 124.11 -28.4081C115.514 -38.007 105.398 -52.4068 110.037 -65.8228L109.212 -65.6513C107.648 -60.5388 108.057 -55.0171 109.701 -49.8779C114.12 -36.0524 125.499 -25.1032 135.921 -15.4991C146.814 -5.4619 158.5 3.82434 168.252 15.0204C173.303 20.8174 177.754 27.1267 181.129 34.0393C185.082 42.1325 187.705 50.772 191.055 59.1136C196.104 71.6905 204.01 85.0947 217.561 89.9071C232.931 95.3674 247.579 85.7363 260.63 78.759C268.024 74.8057 275.579 71.654 283.877 70.1957C292.011 68.7635 300.305 68.6437 308.538 68.8059C324.234 69.1128 340.371 70.6445 355.737 66.5125C370.631 62.5076 382.375 52.6454 393.459 42.4177C399.158 37.1599 404.775 31.7962 410.872 26.9897C416.547 22.5144 422.686 18.7855 429.06 15.3897C440.852 9.11127 453.509 3.77055 463.724 -5.01469C468.46 -9.08815 472.452 -13.9149 475.242 -19.5023C475.276 -19.5303 475.307 -19.5683 475.331 -19.6178C482.478 -33.5577 487.973 -49.0073 487.945 -64.8111C487.931 -72.001 486.701 -79.1843 483.932 -85.838C481.242 -92.2988 477.101 -98.1857 472.404 -103.355L472.407 -103.356Z" fill="#717171"/>
<path d="M456.571 -95.7026C438.213 -115.904 410.119 -123.341 383.485 -122.677L378.525 -121.646C399.84 -122.813 421.303 -119.704 439.824 -108.407C450.57 -101.852 460.389 -92.4759 465.681 -80.9415C471.517 -68.2246 470.575 -53.6693 466.751 -40.5067C464.732 -33.5588 461.91 -26.8656 458.614 -20.4243C458.582 -20.3969 458.553 -20.3594 458.529 -20.3124C453.124 -9.43332 442.907 -2.58975 432.479 3.03606C421.726 8.83681 410.507 13.7661 400.822 21.3287C390.224 29.6022 381.275 39.7995 370.346 47.6759C364.586 51.8287 358.284 55.1674 351.415 57.0851C344.545 59.0028 337.392 59.6184 330.284 59.7274C316.229 59.9432 302.073 58.1881 288.082 60.2124C281.218 61.2049 274.742 63.2999 268.539 66.3749C262.077 69.5794 255.956 73.4565 249.331 76.3362C242.659 79.2365 235.303 80.9335 228.122 78.9817C222.009 77.3212 216.849 73.3422 212.803 68.5978C203.067 57.1814 200.375 42.0282 194.044 28.8071C182.627 4.96672 158.74 -8.76086 141.575 -27.9221C133.231 -37.2357 123.29 -51.5648 130.017 -64.4124C131.416 -67.0824 133.405 -69.2969 135.712 -71.1639L134.141 -70.8371C132.285 -69.1739 130.676 -67.2611 129.479 -65.0464C126.501 -59.5327 126.612 -53.148 128.478 -47.3065C132.477 -34.7939 142.768 -24.8879 152.199 -16.1982C162.051 -7.11975 172.618 1.2789 181.439 11.4041C186.006 16.645 190.029 22.3469 193.079 28.5968C196.652 35.9158 199.026 43.73 202.054 51.2722C206.626 62.6554 213.783 74.7834 226.049 79.1406C239.96 84.0825 253.217 75.3712 265.028 69.0549C271.711 65.4823 278.54 62.6334 286.043 61.3142C293.396 60.021 300.895 59.912 308.338 60.0579C322.536 60.3359 337.133 61.7219 351.034 57.9836C364.51 54.3598 375.137 45.439 385.167 36.1844C390.322 31.4298 395.403 26.5779 400.915 22.2308C406.045 18.1854 411.593 14.8149 417.357 11.745C428.024 6.06417 439.475 1.23333 448.713 -6.71282C452.998 -10.3965 456.609 -14.7647 459.136 -19.8183C459.167 -19.8457 459.197 -19.8807 459.221 -19.9276C465.686 -32.54 470.66 -46.5177 470.633 -60.8167C470.621 -67.3264 469.506 -73.8295 467 -79.8521C464.567 -85.6989 460.82 -91.0264 456.569 -95.702L456.571 -95.7026Z" fill="#636363"/>
<path d="M442.421 -20.6198C437.592 -10.8969 428.462 -4.78184 419.14 0.247515C409.52 5.43851 399.485 9.8465 390.823 16.6103C381.344 24.0097 373.34 33.1285 363.569 40.1725C358.424 43.8807 352.793 46.8654 346.659 48.5752C340.518 50.2891 334.128 50.8403 327.775 50.9362C315.201 51.1293 302.541 49.558 290.023 51.37C283.883 52.2594 278.087 54.132 272.534 56.8856C266.757 59.7515 261.282 63.2194 255.358 65.794C249.401 68.383 242.834 69.9002 236.424 68.1575C230.962 66.6731 226.356 63.1208 222.74 58.8837C214.036 48.6765 211.63 35.126 205.971 23.3069C195.759 1.98536 174.396 -10.2935 159.045 -27.4318C151.598 -35.7461 142.709 -48.5454 148.714 -60.0153C151.339 -65.029 156.299 -68.2564 161.339 -70.5292C167.467 -73.2927 174.085 -75.1085 180.59 -76.7488C208.657 -83.8277 237.76 -84.6019 266.275 -88.9338C280.816 -91.1431 295.025 -94.6812 309.194 -98.5693C323.015 -102.359 336.829 -106.302 350.955 -108.809C376.127 -113.279 403.319 -113.001 425.704 -99.3488C435.309 -93.4908 444.084 -85.1123 448.812 -74.8009C454.026 -63.4388 453.185 -50.4329 449.766 -38.6738C447.955 -32.4393 445.421 -26.4339 442.458 -20.6564C442.233 -20.2169 442.879 -19.791 443.106 -20.2335C448.891 -31.5188 453.342 -44.0266 453.319 -56.8213C453.308 -62.6508 452.309 -68.4712 450.066 -73.8653C447.888 -79.0951 444.534 -83.863 440.731 -88.0481C424.163 -106.279 398.734 -112.894 374.724 -112.168C345.325 -111.28 317.507 -100.879 289.171 -94.1525C259.955 -87.2193 229.893 -86.3925 200.342 -81.5649C193.091 -80.3792 185.874 -78.9364 178.764 -77.0758C172.479 -75.4315 166.067 -73.6272 160.177 -70.8452C155.389 -68.5828 150.723 -65.3747 148.159 -60.6275C145.491 -55.6858 145.587 -49.9657 147.258 -44.7327C150.835 -33.5354 160.041 -24.6707 168.48 -16.8949C177.29 -8.77772 186.741 -1.26468 194.629 7.78767C198.71 12.4725 202.304 17.57 205.033 23.1537C208.229 29.7004 210.353 36.6873 213.059 43.4326C217.15 53.6226 223.561 64.474 234.539 68.3741C246.993 72.797 258.856 65.0066 269.428 59.3533C275.401 56.1588 281.506 53.6122 288.212 52.4326C294.785 51.2753 301.486 51.1802 308.137 51.3103C320.837 51.5594 333.897 52.7992 346.33 49.4551C358.388 46.2124 367.896 38.2311 376.872 29.952C381.482 25.7007 386.026 21.3611 390.954 17.4729C395.541 13.8573 400.498 10.8452 405.649 8.10174C415.192 3.02106 425.434 -1.30186 433.7 -8.40996C437.552 -11.7236 440.798 -15.6521 443.06 -20.2029C443.277 -20.6433 442.634 -21.0698 442.412 -20.6258L442.421 -20.6198Z" fill="#555555"/>
<path d="M426.316 -20.9309C422.06 -12.3636 414.019 -6.97755 405.805 -2.54768C397.319 2.03051 388.468 5.92026 380.825 11.8884C372.469 18.4131 365.411 26.4532 356.794 32.6631C352.264 35.9292 347.306 38.5542 341.903 40.0622C336.494 41.5717 330.861 42.0571 325.264 42.1451C314.174 42.3149 303.004 40.9309 291.963 42.5277C286.545 43.3113 281.43 44.9664 276.531 47.3958C271.436 49.9235 266.609 52.9792 261.384 55.2513C256.145 57.5289 250.364 58.8669 244.723 57.3333C239.916 56.0268 235.86 52.8994 232.677 49.1691C225.004 40.174 222.886 28.2257 217.896 17.8092C208.891 -0.996584 190.049 -11.8261 176.51 -26.9409C169.96 -34.256 162.124 -45.523 167.404 -55.6171C169.715 -60.0316 174.082 -62.8714 178.519 -64.8722C183.918 -67.3087 189.752 -68.9066 195.482 -70.3518C220.23 -76.5941 245.894 -77.2787 271.038 -81.0958C283.86 -83.0418 296.389 -86.1651 308.883 -89.5898C321.071 -92.9327 333.25 -96.4073 345.708 -98.6204C367.891 -102.56 391.857 -102.318 411.585 -90.2859C420.047 -85.1248 427.778 -77.7437 431.948 -68.659C436.539 -58.6515 435.795 -47.1946 432.787 -36.8375C431.192 -31.344 428.961 -26.0509 426.35 -20.9589C426.124 -20.5194 426.77 -20.0935 426.997 -20.536C432.102 -30.4942 436.031 -41.5296 436.009 -52.8196C436 -57.9688 435.119 -63.107 433.135 -67.872C431.215 -72.4878 428.254 -76.6963 424.897 -80.3877C410.28 -96.472 387.845 -102.311 366.663 -101.671C340.735 -100.887 316.205 -91.7168 291.215 -85.7855C265.453 -79.6701 238.943 -78.943 212.889 -74.6856C206.493 -73.6411 200.131 -72.3681 193.862 -70.727C188.316 -69.2755 182.66 -67.6832 177.46 -65.2279C173.231 -63.2311 169.111 -60.3956 166.844 -56.2022C164.486 -51.8355 164.563 -46.7788 166.043 -42.1525C169.201 -32.2711 177.316 -24.4491 184.766 -17.5827C192.535 -10.4242 200.868 -3.8018 207.824 4.18274C211.42 8.31143 214.587 12.8016 216.991 17.7226C219.809 23.4944 221.679 29.6547 224.069 35.6045C227.683 44.6033 233.343 54.1765 243.037 57.6184C254.031 61.5229 264.502 54.6528 273.837 49.6626C279.102 46.8482 284.478 44.6049 290.386 43.5649C296.178 42.5466 302.081 42.4603 307.945 42.5761C319.148 42.7964 330.666 43.888 341.635 40.94C352.275 38.0784 360.667 31.0386 368.588 23.73C372.653 19.9795 376.659 16.1546 381.005 12.7278C385.045 9.54268 389.414 6.88841 393.954 4.47088C402.372 -0.0121688 411.406 -3.82468 418.698 -10.0967C422.097 -13.0206 424.964 -16.488 426.959 -20.5045C427.176 -20.9449 426.533 -21.3713 426.311 -20.9273L426.316 -20.9309Z" fill="#474747"/>
<path d="M410.208 -21.2412C406.527 -13.83 399.57 -9.17196 392.468 -5.33959C385.114 -1.37367 377.446 1.99786 370.825 7.16717C363.589 12.8178 357.478 19.7788 350.016 25.157C346.102 27.9785 341.814 30.2494 337.148 31.5519C332.467 32.8576 327.597 33.2787 322.755 33.3536C313.147 33.5007 303.47 32.3035 293.905 33.6876C289.21 34.3654 284.775 35.8006 280.53 37.9082C276.116 40.0953 271.939 42.7438 267.416 44.7102C262.893 46.6766 257.899 47.8328 253.03 46.5103C248.874 45.3798 245.372 42.6791 242.621 39.4531C235.981 31.6672 234.147 21.3246 229.831 12.3097C222.03 -3.97985 205.713 -13.358 193.986 -26.4519C188.33 -32.7647 181.546 -42.5019 186.106 -51.2213C188.101 -55.0362 191.876 -57.4884 195.711 -59.2176C200.381 -61.3247 205.429 -62.7067 210.389 -63.9576C231.818 -69.3633 254.04 -69.9553 275.814 -73.2601C286.916 -74.9454 297.767 -77.649 308.586 -80.6157C319.138 -83.5112 329.688 -86.5187 340.473 -88.4338C359.67 -91.8415 380.408 -91.6354 397.478 -81.223C404.798 -76.7562 411.487 -70.373 415.093 -62.5163C419.062 -53.8637 418.419 -43.9562 415.816 -35.0025C414.436 -30.2501 412.505 -25.6712 410.248 -21.2652C410.023 -20.8257 410.668 -20.3998 410.896 -20.8423C415.321 -29.4735 418.726 -39.0364 418.709 -48.8222C418.701 -53.2912 417.935 -57.7492 416.215 -61.8832C414.549 -65.8844 411.982 -69.5309 409.072 -72.7318C396.407 -86.6696 376.966 -91.7338 358.612 -91.1791C336.154 -90.5015 314.909 -82.5586 293.265 -77.4224C270.957 -72.1272 248.002 -71.4953 225.44 -67.8122C219.903 -66.9068 214.395 -65.8061 208.964 -64.3839C204.157 -63.1253 199.254 -61.7446 194.749 -59.617C191.078 -57.8827 187.503 -55.4223 185.538 -51.7837C183.489 -47.989 183.551 -43.5994 184.836 -39.5791C187.573 -31.0105 194.603 -24.2323 201.062 -18.2804C207.79 -12.0806 215.007 -6.34633 221.029 0.565381C224.14 4.13546 226.88 8.02066 228.959 12.279C231.399 17.2761 233.018 22.6116 235.087 27.7619C238.22 35.5676 243.134 43.8642 251.541 46.8514C261.075 50.2374 270.153 44.2877 278.252 39.9574C282.807 37.5212 287.459 35.5802 292.57 34.6823C297.58 33.8004 302.689 33.7276 307.76 33.8275C317.465 34.0164 327.445 34.9644 336.946 32.408C346.169 29.9276 353.444 23.8291 360.311 17.4936C363.831 14.2464 367.3 10.9338 371.065 7.96536C374.561 5.21006 378.339 2.9142 382.266 0.823099C389.558 -3.05929 397.385 -6.36442 403.702 -11.7979C406.65 -14.3319 409.134 -17.3403 410.863 -20.8199C411.081 -21.2603 410.438 -21.6867 410.216 -21.2428L410.208 -21.2412Z" fill="#393939"/>
<path d="M394.1 -21.5517C390.992 -15.2962 385.125 -11.3672 379.129 -8.13124C372.91 -4.77561 366.424 -1.92482 360.824 2.44874C354.707 7.22525 349.541 13.1076 343.237 17.6536C339.938 20.033 336.323 21.9468 332.388 23.045C328.439 24.1488 324.325 24.5041 320.238 24.566C312.112 24.6904 303.929 23.6775 295.84 24.8488C291.865 25.424 288.113 26.6386 284.52 28.4195C280.792 30.2679 277.26 32.5072 273.437 34.1685C269.629 35.8241 265.423 36.8006 261.326 35.6866C257.823 34.7346 254.873 32.4581 252.555 29.739C246.948 23.1648 245.401 14.4249 241.753 6.80996C235.156 -6.96326 221.366 -14.8932 211.451 -25.9635C206.692 -31.2771 200.96 -39.4821 204.796 -46.8233C206.476 -50.0414 209.659 -52.1035 212.891 -53.5608C216.835 -55.3388 221.093 -56.5069 225.28 -57.5631C243.393 -62.1328 262.173 -62.6321 280.574 -65.4266C289.958 -66.8517 299.128 -69.135 308.271 -71.6433C317.19 -74.0893 326.104 -76.6337 335.222 -78.2519C351.43 -81.1297 368.942 -80.9572 383.355 -72.1672C389.535 -68.3977 395.177 -63.0114 398.222 -56.3784C401.571 -49.081 401.026 -40.7224 398.829 -33.1696C397.664 -29.1584 396.034 -25.2911 394.13 -21.5736C393.905 -21.1341 394.55 -20.7082 394.778 -21.1507C398.521 -28.4544 401.406 -36.5454 401.389 -44.8264C401.384 -48.6127 400.733 -52.3905 399.275 -55.8959C397.867 -59.2806 395.693 -62.3701 393.232 -65.0779C382.518 -76.8669 366.073 -81.1564 350.542 -80.6886C331.555 -80.115 313.594 -73.4044 295.297 -69.0609C276.443 -64.586 257.042 -64.0517 237.974 -60.9379C233.293 -60.1742 228.637 -59.2427 224.048 -58.0425C219.979 -56.9767 215.831 -55.8107 212.019 -54.0077C208.908 -52.539 205.876 -50.4507 204.213 -47.3669C202.474 -44.1472 202.52 -40.4216 203.61 -37.0073C205.929 -29.7547 211.871 -24.0172 217.338 -18.9792C223.023 -13.7406 229.121 -8.89392 234.212 -3.05003C236.837 -0.036053 239.15 3.24173 240.906 6.83689C242.969 11.0617 244.337 15.5699 246.084 19.9234C248.74 26.5354 252.905 33.5558 260.026 36.0852C268.102 38.9553 275.788 33.923 282.648 30.2563C286.492 28.2006 290.418 26.5625 294.735 25.8037C298.965 25.0602 303.277 24.9988 307.558 25.0824C315.764 25.2423 324.204 26.0422 332.24 23.8819C340.046 21.7827 346.204 16.6232 352.014 11.2637C354.989 8.51979 357.921 5.71942 361.103 3.20986C364.051 0.882451 367.242 -1.05302 370.558 -2.81821C376.726 -6.10298 383.346 -8.90072 388.69 -13.4956C391.185 -15.6399 393.29 -18.1872 394.752 -21.1324C394.97 -21.5728 394.327 -21.9993 394.105 -21.5553L394.1 -21.5517Z" fill="#2B2B2B"/>
<path d="M377.993 -21.8615C375.46 -16.7621 370.679 -13.5616 365.791 -10.9251C360.707 -8.18231 355.405 -5.84975 350.826 -2.27248C345.832 1.62689 341.612 6.43313 336.46 10.1479C333.776 12.0827 330.832 13.6424 327.633 14.5352C324.412 15.4353 321.062 15.7262 317.727 15.7756C311.082 15.8772 304.395 15.0506 297.78 16.0072C294.527 16.4766 291.456 17.4738 288.517 18.9304C285.47 20.4407 282.584 22.2683 279.464 23.6264C276.372 24.9707 272.954 25.765 269.625 24.8631C266.774 24.0896 264.378 22.2374 262.489 20.0256C257.913 14.6611 256.654 7.52588 253.678 1.31302C248.285 -9.94392 237.02 -16.4226 228.916 -25.4719C225.052 -29.7857 220.375 -36.4589 223.488 -42.4249C224.855 -45.0439 227.445 -46.7184 230.073 -47.9036C233.288 -49.3546 236.763 -50.3048 240.174 -51.1659C254.969 -54.8989 270.31 -55.3061 285.34 -57.5883C293.005 -58.7526 300.494 -60.6187 307.962 -62.6661C315.248 -64.6651 322.527 -66.7414 329.974 -68.0646C343.193 -70.4126 357.48 -70.2736 369.235 -63.1036C374.273 -60.031 378.873 -55.6426 381.354 -50.2351C384.081 -44.2925 383.633 -37.4829 381.847 -31.3346C380.895 -28.0638 379.571 -24.9118 378.015 -21.8793C377.79 -21.4398 378.435 -21.0139 378.663 -21.4564C381.726 -27.433 384.088 -34.0541 384.076 -40.8283C384.071 -43.9344 383.538 -47.0326 382.341 -49.9064C381.187 -52.6765 379.408 -55.2041 377.394 -57.4213C368.631 -67.0639 355.181 -70.5781 342.478 -70.1958C326.962 -69.7261 312.288 -64.2461 297.334 -60.6971C281.934 -57.0425 266.087 -56.606 250.512 -54.0613C246.69 -53.4368 242.886 -52.6746 239.137 -51.6963C235.81 -50.8239 232.413 -49.8689 229.293 -48.3956C226.742 -47.19 224.253 -45.4762 222.888 -42.9468C221.459 -40.2991 221.49 -37.2405 222.389 -34.4303C224.286 -28.493 229.14 -23.7963 233.617 -19.6727C238.261 -15.3928 243.242 -11.4343 247.399 -6.66321C249.542 -4.20587 251.426 -1.53245 252.856 1.39754C254.54 4.84807 255.659 8.53106 257.087 12.087C259.262 17.5059 262.679 23.2501 268.514 25.3219C275.133 27.673 281.425 23.5615 287.046 20.5553C290.182 18.8798 293.381 17.542 296.901 16.9253C300.35 16.3183 303.864 16.2682 307.355 16.338C314.064 16.469 320.966 17.1227 327.535 15.3566C333.923 13.6385 338.962 9.42094 343.72 5.03155C346.15 2.79088 348.544 0.502782 351.144 -1.54538C353.548 -3.44292 356.15 -5.02053 358.85 -6.45876C363.893 -9.14591 369.305 -11.4332 373.675 -15.1896C375.715 -16.9435 377.441 -19.0298 378.64 -21.4411C378.857 -21.8816 378.214 -22.308 377.992 -21.864L377.993 -21.8615Z" fill="#1C1C1C"/>
<path d="M361.885 -22.1689C359.928 -18.2257 356.234 -15.7536 352.455 -13.7142C348.503 -11.5811 344.386 -9.7698 340.827 -6.99079C336.952 -3.96552 333.68 -0.238439 329.683 2.64216C327.614 4.13237 325.34 5.3354 322.875 6.02334C320.385 6.71905 317.792 6.94413 315.216 6.98503C310.055 7.06338 304.858 6.42412 299.719 7.16543C297.19 7.53169 294.798 8.30643 292.51 9.4417C290.148 10.6134 287.909 12.0318 285.488 13.0848C283.112 14.1178 280.482 14.7329 277.924 14.0371C275.727 13.4389 273.881 12.0141 272.426 10.309C268.882 6.15372 267.906 0.621727 265.602 -4.18909C261.416 -12.9303 252.672 -17.9596 246.381 -24.9829C243.414 -28.2974 239.789 -33.4384 242.177 -38.0286C243.228 -40.0479 245.228 -41.3354 247.253 -42.2485C249.739 -43.3701 252.427 -44.1043 255.066 -44.7707C266.542 -47.6646 278.44 -47.9817 290.1 -49.7516C296.045 -50.6552 301.856 -52.1016 307.65 -53.6911C313.302 -55.2405 318.95 -56.8518 324.727 -57.8775C334.957 -59.693 346.018 -59.5926 355.116 -54.0402C359.011 -51.6644 362.567 -48.2709 364.487 -44.0895C366.592 -39.5016 366.245 -34.2414 364.864 -29.4941C364.128 -26.9644 363.104 -24.5241 361.901 -22.1801C361.676 -21.7406 362.322 -21.3147 362.549 -21.7572C364.933 -26.4067 366.771 -31.5555 366.763 -36.8279C366.757 -39.2532 366.342 -41.6692 365.408 -43.9145C364.511 -46.0706 363.125 -48.0387 361.558 -49.7623C354.745 -57.2585 344.289 -59.9975 334.414 -59.6981C322.37 -59.3349 310.981 -55.0823 299.372 -52.3285C287.427 -49.4941 275.134 -49.1553 263.052 -47.1824C260.088 -46.697 257.137 -46.1071 254.23 -45.3482C251.641 -44.6712 249 -43.9258 246.572 -42.7797C244.582 -41.8397 242.638 -40.4985 241.573 -38.5233C240.454 -36.4506 240.469 -34.0536 241.172 -31.8519C242.649 -27.2275 246.417 -23.577 249.903 -20.3624C253.504 -17.0437 257.369 -13.9733 260.594 -10.27C262.251 -8.3688 263.708 -6.30281 264.815 -4.03601C266.121 -1.36027 266.99 1.49799 268.097 4.2545C269.794 8.47967 272.463 12.9503 277.009 14.5649C282.169 16.3975 287.068 13.2065 291.451 10.8633C293.877 9.56583 296.35 8.53342 299.072 8.05376C301.739 7.58568 304.458 7.54648 307.159 7.59995C312.371 7.70212 317.733 8.21014 322.836 6.83769C327.808 5.50012 331.729 2.22456 335.43 -1.19126C337.315 -2.93116 339.172 -4.7045 341.188 -6.29378C343.048 -7.76145 345.06 -8.98065 347.146 -10.0924C351.066 -12.1795 355.268 -13.9589 358.664 -16.8766C360.252 -18.2433 361.596 -19.8655 362.528 -21.7424C362.746 -22.1829 362.103 -22.6093 361.881 -22.1653L361.885 -22.1689Z" fill="#0E0E0E"/>
<path d="M345.778 -22.4795C344.393 -19.6919 341.788 -17.9489 339.115 -16.5084C336.297 -14.9881 333.364 -13.6925 330.825 -11.7118C328.07 -9.56063 325.743 -6.90966 322.903 -4.86379C321.45 -3.81567 319.849 -2.96979 318.117 -2.48672C316.356 -1.99482 314.525 -1.83412 312.702 -1.8057C309.022 -1.75009 305.319 -2.20506 301.657 -1.67398C299.85 -1.41344 298.139 -0.856148 296.504 -0.0451624C294.824 0.788366 293.233 1.79453 291.512 2.54497C289.854 3.26669 288.009 3.70255 286.221 3.2158C284.676 2.79618 283.383 1.79556 282.361 0.597354C279.85 -2.34629 279.16 -6.27558 277.528 -9.68435C274.546 -15.9092 268.327 -19.4873 263.847 -24.4897C261.774 -26.8018 259.204 -30.4161 260.87 -33.6261C261.607 -35.0462 263.012 -35.9456 264.436 -36.5897C266.196 -37.3822 268.094 -37.9025 269.963 -38.3723C278.121 -40.4296 286.58 -40.6546 294.866 -41.9142C299.092 -42.5545 303.223 -43.5862 307.341 -44.7147C311.357 -45.8167 315.372 -46.9629 319.479 -47.6912C326.722 -48.9773 334.556 -48.9099 340.999 -44.9805C343.754 -43.2995 346.266 -40.9059 347.622 -37.9501C349.105 -34.717 348.855 -31.0057 347.884 -27.6604C347.364 -25.8718 346.641 -24.1431 345.792 -22.4852C345.567 -22.0457 346.212 -21.6198 346.44 -22.0623C348.144 -25.3847 349.46 -29.0611 349.452 -32.8288C349.449 -34.5738 349.148 -36.3096 348.477 -37.9239C347.838 -39.4635 346.843 -40.8716 345.723 -42.1046C340.862 -47.4543 333.4 -49.4181 326.353 -49.2042C317.78 -48.9449 309.677 -45.9228 301.415 -43.9641C292.924 -41.95 284.185 -41.7089 275.596 -40.3052C273.487 -39.9609 271.391 -39.5409 269.325 -39.0014C267.475 -38.5172 265.587 -37.986 263.854 -37.165C262.424 -36.4882 261.023 -35.5189 260.257 -34.1006C259.447 -32.5999 259.445 -30.8693 259.956 -29.2742C261.014 -25.9657 263.692 -23.3555 266.19 -21.0558C268.75 -18.6958 271.498 -16.5135 273.791 -13.8806C274.963 -12.5355 275.992 -11.0769 276.774 -9.47277C277.703 -7.56933 278.32 -5.54083 279.106 -3.57874C280.322 -0.546722 282.246 2.6472 285.506 3.8041C289.206 5.11834 292.713 2.84761 295.861 1.16692C297.579 0.249581 299.323 -0.479464 301.251 -0.820054C303.138 -1.15223 305.06 -1.17752 306.969 -1.13985C310.682 -1.06658 314.506 -0.707241 318.142 -1.68302C321.697 -2.63946 324.501 -4.97609 327.148 -7.41636C328.488 -8.65298 329.807 -9.91404 331.241 -11.0419C332.554 -12.0792 333.977 -12.9405 335.454 -13.7264C338.249 -15.2158 341.242 -16.4848 343.666 -18.567C344.801 -19.5439 345.766 -20.7076 346.432 -22.0476C346.65 -22.4881 346.007 -22.9145 345.785 -22.4705L345.778 -22.4795Z" fill="black"/>
</g>
</g>
</g>
<defs>
<clipPath id="clip0_9_879">
<rect width="479.359" height="293.415" fill="white" transform="translate(391.391 200.317) rotate(168.255)"/>
</clipPath>
</defs>
</svg>
