<svg width="95" height="16" viewBox="0 0 95 16" fill="none" xmlns="http://www.w3.org/2000/svg">
<path d="M39.7904 0.000976562V4.17055C38.6126 3.19764 37.0957 2.61201 35.4395 2.61201C31.6932 2.61201 28.6554 5.60952 28.6554 9.30599C28.6554 13.0035 31.6932 16.0009 35.4395 16.0009C37.0957 16.0009 38.6126 15.4153 39.7904 14.4423V16.0009H42.6617V0.000976562H39.7904ZM35.4395 13.4227C33.1354 13.4227 31.2683 11.5793 31.2683 9.30599C31.2683 7.03351 33.1354 5.19026 35.4395 5.19026C37.7437 5.19026 39.6118 7.03351 39.6118 9.30599C39.6118 11.5793 37.7437 13.4227 35.4395 13.4227Z" fill="white"/>
<path d="M51.8558 2.61182C50.7729 2.61182 49.7505 2.86175 48.8422 3.307C48.5273 3.46025 48.2266 3.6386 47.942 3.83775C46.205 5.04968 45.0716 7.04717 45.0716 9.3058V16.0007H47.942V14.7738V10.7327V7.87976C48.5293 6.30939 50.0603 5.19006 51.8558 5.19006H54.1246V2.9963C53.4151 2.74735 52.6511 2.61182 51.8558 2.61182Z" fill="white"/>
<path d="M79.4101 2.3584H76.8547V4.38279C76.8547 6.01592 75.8283 7.41116 74.3769 7.97682C73.9329 8.1491 73.4475 8.24467 72.9408 8.24467C72.4342 8.24467 71.9497 8.15008 71.5057 7.97682C70.0554 7.41217 69.028 6.01592 69.028 4.38279V2.3584H66.4726H66.1567V4.38279C66.1567 7.59432 68.4487 10.2782 71.5057 10.9273V16.0011H74.3769V10.9263C77.435 10.2772 79.726 7.59432 79.726 4.38279V2.3584H79.4101Z" fill="white"/>
<path d="M92.1297 3.83775C91.0246 3.06492 89.6732 2.61182 88.2159 2.61182C84.4685 2.61182 81.4317 5.60933 81.4317 9.3058C81.4317 13.0033 84.4685 16.0007 88.2159 16.0007C89.6732 16.0007 91.0246 15.5466 92.1297 14.7738V16.0007H95V9.3058C95 7.04717 93.8666 5.05057 92.1297 3.83775ZM88.2159 13.1476C86.0651 13.1476 84.3222 11.4278 84.3222 9.3058C84.3222 7.18461 86.0651 5.46494 88.2159 5.46494C90.3656 5.46494 92.1085 7.18461 92.1085 9.3058C92.1085 11.4278 90.3656 13.1476 88.2159 13.1476Z" fill="white"/>
<path d="M66.1582 11.8751C66.1582 14.1536 64.287 16.0008 61.9779 16.0008H55.0545V13.3668H61.9779C62.8126 13.3668 63.4898 12.6986 63.4898 11.8751C63.4898 11.0515 62.8126 10.3833 61.9779 10.3833H57.843C56.6814 9.98809 55.7508 9.1017 55.3078 7.97455C55.1261 7.5125 55.0262 7.0086 55.0262 6.48281C55.0262 4.50702 56.4331 2.85704 58.3123 2.45275V2.44678H63.5947V4.99107H59.2075C58.3729 4.99107 57.6957 5.65929 57.6957 6.48281C57.6957 7.30734 58.3729 7.97455 59.2075 7.97455H63.3414C64.4354 8.34599 65.3246 9.15458 65.7939 10.1883C66.028 10.703 66.1582 11.2746 66.1582 11.8751Z" fill="white"/>
<path d="M23.4589 7.53676C22.7515 6.97812 21.9885 6.48515 21.1791 6.06696C19.21 5.0491 16.9685 4.47363 14.5917 4.47363C10.3367 4.47363 6.51875 6.31787 3.91489 9.24162C3.17411 8.64413 2.51003 7.95689 1.94081 7.19609L3.05176e-05 9.11105C0.680264 9.96555 1.45839 10.7413 2.31928 11.4194C3.02676 11.978 3.78975 12.4709 4.59916 12.8893C6.56821 13.9069 8.80974 14.4826 11.1865 14.4826C15.4415 14.4826 19.2595 12.6383 21.8633 9.71464C22.6768 10.3698 23.3974 11.1347 24.0019 11.9841L25.9477 10.0632C25.2281 9.1211 24.3915 8.27267 23.4589 7.53676ZM11.1865 11.7998C9.41731 11.7998 7.74297 11.4054 6.24625 10.7004C8.33943 8.51755 11.3046 7.15637 14.5917 7.15637C16.3609 7.15637 18.0363 7.5507 19.533 8.25566C17.4388 10.4386 14.4736 11.7998 11.1865 11.7998Z" fill="#F36F34"/>
</svg>
