<svg width="95" height="16" viewBox="0 0 95 16" fill="none" xmlns="http://www.w3.org/2000/svg">
<path d="M39.7904 0V4.16958C38.6126 3.19667 37.0957 2.61104 35.4395 2.61104C31.6932 2.61104 28.6554 5.60855 28.6554 9.30502C28.6554 13.0025 31.6932 15.9999 35.4395 15.9999C37.0957 15.9999 38.6126 15.4144 39.7904 14.4414V15.9999H42.6617V0H39.7904ZM35.4395 13.4217C33.1354 13.4217 31.2683 11.5784 31.2683 9.30502C31.2683 7.03254 33.1354 5.18928 35.4395 5.18928C37.7436 5.18928 39.6117 7.03254 39.6117 9.30502C39.6117 11.5784 37.7436 13.4217 35.4395 13.4217Z" fill="#051E29"/>
<path d="M51.8558 2.61133C50.7729 2.61133 49.7505 2.86126 48.8422 3.30651C48.5273 3.45976 48.2265 3.63811 47.9419 3.83726C46.205 5.04919 45.0716 7.04668 45.0716 9.30531V16.0002H47.9419V14.7734V10.7322V7.87927C48.5293 6.3089 50.0603 5.18957 51.8558 5.18957H54.1246V2.99581C53.415 2.74686 52.6511 2.61133 51.8558 2.61133Z" fill="#051E29"/>
<path d="M79.4101 2.35742H76.8546V4.38182C76.8546 6.01495 75.8282 7.41019 74.3769 7.97584C73.9329 8.14812 73.4474 8.2437 72.9408 8.2437C72.4342 8.2437 71.9497 8.1491 71.5056 7.97584C70.0553 7.4112 69.0279 6.01495 69.0279 4.38182V2.35742H66.4725H66.1566V4.38182C66.1566 7.59335 68.4486 10.2772 71.5056 10.9263V16.0001H74.3769V10.9253C77.435 10.2762 79.7259 7.59335 79.7259 4.38182V2.35742H79.4101Z" fill="#051E29"/>
<path d="M92.1297 3.83726C91.0246 3.06443 89.6732 2.61133 88.2158 2.61133C84.4685 2.61133 81.4317 5.60884 81.4317 9.30531C81.4317 13.0028 84.4685 16.0002 88.2158 16.0002C89.6732 16.0002 91.0246 15.5461 92.1297 14.7734V16.0002H95V9.30531C95 7.04668 93.8666 5.05008 92.1297 3.83726ZM88.2158 13.1471C86.0651 13.1471 84.3222 11.4273 84.3222 9.30531C84.3222 7.18412 86.0651 5.46445 88.2158 5.46445C90.3655 5.46445 92.1085 7.18412 92.1085 9.30531C92.1085 11.4273 90.3655 13.1471 88.2158 13.1471Z" fill="#051E29"/>
<path d="M66.1582 11.8746C66.1582 14.1531 64.287 16.0003 61.9779 16.0003H55.0545V13.3663H61.9779C62.8125 13.3663 63.4897 12.6981 63.4897 11.8746C63.4897 11.051 62.8125 10.3829 61.9779 10.3829H57.843C56.6814 9.98761 55.7508 9.10121 55.3078 7.97406C55.1261 7.51202 55.0262 7.00811 55.0262 6.48232C55.0262 4.50654 56.4331 2.85655 58.3123 2.45226V2.44629H63.5947V4.99058H59.2075C58.3728 4.99058 57.6957 5.6588 57.6957 6.48232C57.6957 7.30686 58.3728 7.97406 59.2075 7.97406H63.3414C64.4354 8.3455 65.3245 9.1541 65.7938 10.1878C66.028 10.7025 66.1582 11.2741 66.1582 11.8746Z" fill="#051E29"/>
<path d="M23.4589 7.53578C22.7514 6.97714 21.9884 6.48418 21.179 6.06598C19.21 5.04812 16.9685 4.47266 14.5917 4.47266C10.3367 4.47266 6.51872 6.31689 3.91486 9.24065C3.17408 8.64315 2.51 7.95591 1.94078 7.19512L0 9.11008C0.680234 9.96458 1.45836 10.7403 2.31925 11.4185C3.02673 11.9771 3.78972 12.47 4.59913 12.8883C6.56818 13.906 8.80971 14.4816 11.1865 14.4816C15.4415 14.4816 19.2594 12.6374 21.8633 9.71367C22.6767 10.3688 23.3974 11.1337 24.0019 11.9831L25.9477 10.0622C25.2281 9.12013 24.3915 8.27169 23.4589 7.53578ZM11.1865 11.7988C9.41728 11.7988 7.74293 11.4044 6.24622 10.6994C8.3394 8.51657 11.3046 7.1554 14.5917 7.1554C16.3609 7.1554 18.0362 7.54972 19.5329 8.25469C17.4388 10.4376 14.4736 11.7988 11.1865 11.7988Z" fill="#F36F34"/>
</svg>
